<svg width="96" height="96" viewBox="0 0 96 96" fill="none" xmlns="http://www.w3.org/2000/svg">
<circle cx="48" cy="48" r="48" fill="#16A34A"/>
<path d="M48.6017 72.8904C48.2555 73.4109 47.7167 73.7725 47.104 73.8958C46.4912 74.019 45.8546 73.8938 45.3341 73.5476C36.4541 67.6388 26.0226 64.4945 15.3571 64.5117C14.732 64.5117 14.1324 64.2633 13.6904 63.8212C13.2483 63.379 13 62.7793 13 62.154C13 61.5287 13.2483 60.929 13.6904 60.4869C14.1324 60.0447 14.732 59.7963 15.3571 59.7963C26.9517 59.7786 38.2915 63.1978 47.9446 69.6221C48.465 69.9684 48.8265 70.5072 48.9498 71.1202C49.073 71.7331 48.9478 72.3698 48.6017 72.8904ZM15.3571 50.3655C14.732 50.3655 14.1324 50.6139 13.6904 51.0561C13.2483 51.4982 13 52.0979 13 52.7232C13 53.3485 13.2483 53.9482 13.6904 54.3904C14.1324 54.8325 14.732 55.0809 15.3571 55.0809C32.0187 55.0428 48.0233 61.5776 59.8983 73.2677C60.1174 73.493 60.3793 73.6722 60.6686 73.7949C60.958 73.9175 61.2689 73.981 61.5832 73.9816C61.8974 73.9823 62.2086 73.9201 62.4985 73.7987C62.7883 73.6773 63.051 73.4992 63.271 73.2748C63.4911 73.0504 63.664 72.7842 63.7797 72.492C63.8954 72.1998 63.9515 71.8873 63.9448 71.5731C63.938 71.2588 63.8685 70.9491 63.7403 70.6622C63.6121 70.3752 63.4278 70.1167 63.1983 69.902C50.4445 57.3441 33.2537 50.324 15.3571 50.3655ZM76.6429 55.0809C71.8249 55.0778 67.022 55.6205 62.3262 56.6989C63.9447 57.9269 65.5162 59.2197 67.0404 60.5773C70.2148 60.0573 73.4262 59.7961 76.6429 59.7963C77.268 59.7963 77.8676 60.0447 78.3096 60.4869C78.7517 60.929 79 61.5287 79 62.154C79 62.7793 78.7517 63.379 78.3096 63.8212C77.8676 64.2633 77.268 64.5117 76.6429 64.5117C74.875 64.5117 73.1278 64.5972 71.3835 64.7652C73.0178 66.4686 74.5833 68.2507 76.0801 70.1113C76.2851 70.3514 76.4398 70.6304 76.535 70.9315C76.6302 71.2326 76.6639 71.5498 76.6342 71.8642C76.6045 72.1786 76.5119 72.4839 76.362 72.7618C76.2121 73.0397 76.0079 73.2847 75.7615 73.4822C75.5151 73.6797 75.2315 73.8256 74.9277 73.9114C74.6238 73.9972 74.3058 74.021 73.9925 73.9815C73.6793 73.9419 73.3771 73.8399 73.1041 73.6813C72.831 73.5227 72.5926 73.3109 72.4029 73.0584C65.5708 64.4889 56.8921 57.5732 47.0145 52.8274C37.1368 48.0816 26.3152 45.6281 15.3571 45.6501C14.732 45.6501 14.1324 45.4017 13.6904 44.9596C13.2483 44.5174 13 43.9177 13 43.2924C13 42.6671 13.2483 42.0674 13.6904 41.6253C14.1324 41.1831 14.732 40.9347 15.3571 40.9347C20.1007 40.9356 24.8343 41.3666 29.5 42.2226V31.5039C29.5 31.1379 29.5852 30.7769 29.7489 30.4495C29.9125 30.1221 30.1501 29.8374 30.4429 29.6178L49.3 15.4715C49.708 15.1655 50.2043 15 50.7143 15C51.2243 15 51.7206 15.1655 52.1286 15.4715L70.9857 29.6178C71.2785 29.8374 71.5161 30.1221 71.6797 30.4495C71.8434 30.7769 71.9286 31.1379 71.9286 31.5039V41.0791C73.4931 40.9878 75.0636 40.9347 76.6429 40.9347C77.268 40.9347 77.8676 41.1831 78.3096 41.6253C78.7517 42.0674 79 42.6671 79 43.2924C79 43.9177 78.7517 44.5174 78.3096 44.9596C77.8676 45.4017 77.268 45.6501 76.6429 45.6501C68.1782 45.634 59.776 47.0992 51.8163 49.9795C53.6705 50.9618 55.4836 52.0208 57.2554 53.1565C63.5506 51.3009 70.08 50.3609 76.6429 50.3655C77.268 50.3655 77.8676 50.6139 78.3096 51.0561C78.7517 51.4982 79 52.0979 79 52.7232C79 53.3485 78.7517 53.9482 78.3096 54.3904C77.8676 54.8325 77.268 55.0809 76.6429 55.0809ZM43.6429 33.8616H57.7857C58.4109 33.8616 59.0104 34.11 59.4525 34.5522C59.8945 34.9943 60.1429 35.594 60.1429 36.2193V42.6853C62.4764 42.1823 64.8336 41.7894 67.2143 41.5065V32.6828L50.7143 20.3048L34.2143 32.6828V43.2364C36.6088 43.8259 38.9659 44.5312 41.2857 45.3525V36.2193C41.2857 35.594 41.5341 34.9943 41.9761 34.5522C42.4182 34.11 43.0177 33.8616 43.6429 33.8616ZM46.0206 47.2033C49.0814 45.8887 52.224 44.7734 55.4286 43.8642V38.577H46V47.1944L46.0206 47.2033Z" fill="#00481B"/>
</svg>
